<svg xmlns="http://www.w3.org/2000/svg" width="380.0914705164639" height="263.09456474811486" viewBox="0 0 2560 1770" version="1.1"><path d="M 1140 0.657 C 1138.075 0.842, 1131.325 1.481, 1125 2.075 C 1102.470 4.193, 1070.967 10.298, 1050 16.609 C 1036.682 20.617, 1002.567 32.843, 991.100 37.716 C 908.005 73.031, 833.218 140.772, 786.680 222.880 C 765.795 259.727, 750.109 305.115, 742.573 350.500 C 738.627 374.264, 737.589 388.351, 737.599 418 C 737.610 449.571, 738.771 463.843, 743.544 491.054 C 764.595 611.065, 838.191 714.179, 949.696 779.891 C 961.375 786.773, 999.827 806.008, 1004.961 807.536 C 1007.389 808.259, 1007.399 808.236, 1005.711 805.884 C 982.872 774.070, 969.229 743.273, 955.091 691.616 C 943.186 648.115, 938.275 608.764, 939.291 565.001 C 940.043 532.604, 943.436 506.196, 950.057 481.207 C 962.337 434.864, 990.819 388.912, 1026.010 358.668 C 1063.099 326.794, 1103.582 310.225, 1149 308.331 C 1198.126 306.283, 1244.772 321.928, 1272.256 349.671 C 1284.428 361.957, 1291.325 372.975, 1297.358 389.766 C 1304.704 410.212, 1306.589 437.745, 1302.098 459 C 1291.410 509.588, 1249.718 548.807, 1194 560.688 C 1187.390 562.097, 1181.010 562.500, 1165.302 562.500 L 1145.105 562.500 1147.398 565 C 1148.659 566.375, 1172.606 592.250, 1200.613 622.500 C 1228.620 652.750, 1267.837 695.138, 1287.762 716.695 C 1307.688 738.253, 1325.455 757.005, 1327.245 758.367 C 1332.370 762.264, 1339.795 765.655, 1349.523 768.538 C 1361.613 772.121, 1382.248 773.039, 1395.312 770.575 C 1412.505 767.331, 1426.404 761.035, 1442.059 749.399 C 1489.468 714.160, 1529.343 669.352, 1558.447 618.612 C 1580.756 579.718, 1597.567 533.031, 1605.456 488.054 C 1610.391 459.922, 1611.415 446.814, 1611.400 412 C 1611.384 376.400, 1610.497 366.421, 1604.874 338.589 C 1582.870 229.678, 1507.863 122.913, 1413 65.475 C 1398.706 56.821, 1361.227 38.144, 1346.344 32.260 C 1303.269 15.228, 1257.848 4.853, 1209.605 1.023 C 1197.917 0.096, 1148.528 -0.164, 1140 0.657 M 1074.623 469.500 C 1064.549 515.272, 1047.662 560.813, 1021.154 613.692 C 1009.652 636.638, 1005.703 651.998, 1005.777 673.500 C 1005.918 713.915, 1025.441 754.120, 1067.289 800.171 L 1077.410 811.309 1085.309 802.985 C 1115.099 771.595, 1136.179 734.250, 1142.615 701.464 C 1145.004 689.297, 1144.984 666.018, 1142.573 652.500 C 1139.267 633.959, 1133.951 619.769, 1112.231 571.500 C 1087.947 517.534, 1082.547 501.368, 1077.157 466.500 L 1076.384 461.500 1074.623 469.500" stroke="none" fill="#c4a464" fill-rule="evenodd"/></svg>